<?xml version="1.0" standalone="no"?>
<!DOCTYPE svg PUBLIC "-//W3C//DTD SVG 20010904//EN"
 "http://www.w3.org/TR/2001/REC-SVG-20010904/DTD/svg10.dtd">
<svg version="1.0" xmlns="http://www.w3.org/2000/svg"
 width="260.000000pt" height="260.000000pt" viewBox="0 0 260.000000 260.000000"
 preserveAspectRatio="xMidYMid meet">
<metadata>
Created by potrace 1.14, written by Peter Selinger 2001-2017
</metadata>
<g transform="translate(0.000000,260.000000) scale(0.100000,-0.100000)"
fill="#000000" stroke="none">
<path d="M504 2585 c-147 -32 -291 -127 -380 -251 -86 -121 -125 -246 -120
-388 5 -114 18 -170 66 -271 89 -186 275 -321 490 -353 68 -10 138 -6 224 12
46 9 64 10 59 2 -22 -36 -149 -236 -205 -321 -35 -55 -91 -142 -124 -193 -32
-51 -82 -127 -109 -170 -118 -181 -313 -489 -324 -509 -19 -37 -13 -73 18
-104 l29 -29 376 0 376 0 29 28 c15 15 109 153 206 307 98 154 184 286 190
293 9 10 13 -1 19 -55 17 -182 102 -328 269 -460 35 -28 145 -76 216 -94 164
-43 364 -7 504 90 188 129 291 332 282 553 -12 296 -208 535 -495 604 -108 26
-279 12 -394 -32 -16 -6 18 49 267 436 55 85 116 181 136 212 20 32 112 176
205 320 93 145 170 274 171 288 2 28 -10 56 -33 80 -13 13 -71 15 -391 18
-278 2 -382 0 -398 -9 -20 -11 -112 -149 -331 -493 l-49 -78 -18 77 c-50 225
-224 413 -445 480 -73 22 -238 27 -316 10z"/>
</g>
</svg>
